# xmcd CD database file
#
# Track frame offsets:
#	150
#	20205
#	34521
#	51585
#	70623
#	85556
#	107344
#	122234
#	140763
#	159859
#	177428
#
# Disc length: 2552 seconds
#
# Revision: 0
# Processed by: cddbd v1.5.2PL0 Copyright (c) Steve Scherf et al.
# Submitted via: CDex 1.81
#
DISCID=8e09f60b
DTITLE=Tracy Chapman - Our Bright Future
DYEAR=2008
DGENRE=Blues
TTITLE0=Sing for You
TTITLE1=I Did It All
TTITLE2=Save Us All
TTITLE3=Our Bright Future
TTITLE4=For a Dream
TTITLE5=Thinking of You
TTITLE6=A Theory
TTITLE7=Conditional
TTITLE8=Something to See
TTITLE9=The First Person on Earth
TTITLE10=Spring
EXTD=YEAR: 2008
EXTT0=
EXTT1=
EXTT2=
EXTT3=
EXTT4=
EXTT5=
EXTT6=
EXTT7=
EXTT8=
EXTT9=
EXTT10=
PLAYORDER=
